# xmcd CD database file
#
# Track frame offsets:
#	150
#	16388
#	34767
#	50667
#	67539
#	85888
#	101451
#	118459
#	133960
#	151503
#	166647
#	185583
#	200954
#
# Disc length: 3023 seconds
#
# Revision: 0
# Processed by: cddbd v1.5.2PL0 Copyright (c) Steve Scherf et al.
# Submitted via: CDex 1.51
#
DISCID=ab0bcd0d
DTITLE=Nietos del futuro - La Republica - Lo mejor de la movida tropical Vol.3
DYEAR=1900
DGENRE=Salsa
TTITLE0=Gelatina
TTITLE1=Aguanta corazon
TTITLE2=Te quiero hasta morir
TTITLE3=Ya no pares
TTITLE4=Muevete
TTITLE5=Baila baila conmigo
TTITLE6=El paso del cangrejo
TTITLE7=Vitamina
TTITLE8=Se mira pero no se toca
TTITLE9=El negro Bembon
TTITLE10=Temo decirtelo todo
TTITLE11=El enano
TTITLE12=Devorame otra vez
EXTD=
EXTT0=
EXTT1=
EXTT2=
EXTT3=
EXTT4=
EXTT5=
EXTT6=
EXTT7=
EXTT8=
EXTT9=
EXTT10=
EXTT11=
EXTT12=
PLAYORDER=
